<svg xmlns="http://www.w3.org/2000/svg" width="88" height="31" viewBox="0 0 88 31">
  <g id="all-inkl_banner_88x31_hosted_by" transform="translate(-245 -598)">
    <rect id="Rechteck_1540" data-name="Rechteck 1540" width="88" height="31" transform="translate(245 598)" fill="#fff"/>
    <text id="hosted_by" data-name="hosted by" transform="translate(329.053 611)" fill="#333" font-size="10" font-family="ProximaNova-MediumIt, Proxima Nova" font-weight="500" font-style="italic" letter-spacing="-0.025em"><tspan x="-41" y="0">hosted by</tspan></text>
    <g id="logo" transform="translate(247.947 613)">
      <g id="Gruppe_79" data-name="Gruppe 79" transform="translate(0 0)">
        <path id="Pfad_21" data-name="Pfad 21" d="M32.745,6.663c0-1.268-1.023-1.635-2.072-1.635H29.95c-1.6,0-2.457.338-2.776,2.142l-.835,4.744c-.019.094.009.188.151.188h1.537a.2.2,0,0,0,.216-.188l.366-2.086h1.716l-.366,2.086a.144.144,0,0,0,.141.188h1.528a.209.209,0,0,0,.234-.188L32.7,7.17a3.34,3.34,0,0,0,.046-.507m-1.931.32a1.674,1.674,0,0,1-.019.188l-.2,1.109H28.881l.2-1.109c.066-.376.206-.489.581-.489h.722c.309,0,.432.075.432.3m6.508,3.729a.153.153,0,0,0-.16-.159H35.642c-.273,0-.385-.075-.385-.291a1.446,1.446,0,0,1,.018-.178l.835-4.774c0-.122-.056-.188-.149-.188H34.433a.251.251,0,0,0-.234.188l-.835,4.774a3.122,3.122,0,0,0-.047.487c0,1.268,1.041,1.616,2.1,1.616a9.583,9.583,0,0,0,1.481-.113.222.222,0,0,0,.216-.188l.207-1.145Zm4.895,0a.153.153,0,0,0-.16-.159H40.536c-.272,0-.384-.075-.384-.291a1.329,1.329,0,0,1,.019-.178l.835-4.774c0-.122-.056-.188-.15-.188H39.327a.251.251,0,0,0-.234.188l-.835,4.774a3.2,3.2,0,0,0-.046.487c0,1.268,1.041,1.616,2.1,1.616a9.585,9.585,0,0,0,1.482-.113.222.222,0,0,0,.216-.188l.206-1.145Zm2.9-1.944a.145.145,0,0,0-.16-.15H43.144a.219.219,0,0,0-.215.178l-.169.958c0,.122.065.178.16.178h1.81a.221.221,0,0,0,.215-.178l.169-.958ZM48.32,5.121H46.782a.221.221,0,0,0-.215.179L45.4,11.915a.149.149,0,0,0,.15.188h1.537a.211.211,0,0,0,.225-.188L48.479,5.3a.143.143,0,0,0-.16-.179M55.006,7c0-1.5-1.014-1.973-2.654-1.973-.4,0-1.567.085-2.063.16-.451.065-.61.179-.694.685l-1.059,6.041c0,.122.057.188.15.188h1.537a.24.24,0,0,0,.225-.188l.91-5.205a7.153,7.153,0,0,1,.9-.047c.543,0,.806.113.806.629a3.243,3.243,0,0,1-.047.47L52.3,11.915c0,.122.047.188.141.188h1.547a.24.24,0,0,0,.225-.188l.722-4.153A4.768,4.768,0,0,0,55.006,7m7.445-1.794c0-.056-.037-.085-.112-.085H60.491a.3.3,0,0,0-.234.152l-2.27,2.959L58.5,5.3c0-.122-.066-.179-.16-.179H56.816a.233.233,0,0,0-.225.179l-1.163,6.615c0,.122.066.188.16.188h1.528a.24.24,0,0,0,.225-.188l.524-3.044,1.192,3.072c.028.084.056.159.169.159h1.838a.133.133,0,0,0,.15-.131.174.174,0,0,0-.018-.065L59.75,8.6,62.4,5.329a.228.228,0,0,0,.056-.122m3.939,5.5a.153.153,0,0,0-.16-.159H64.712c-.272,0-.385-.075-.385-.291a1.23,1.23,0,0,1,.019-.178l.834-4.774c0-.122-.055-.188-.15-.188H63.5a.252.252,0,0,0-.235.188l-.835,4.774a3.209,3.209,0,0,0-.047.487c0,1.268,1.041,1.616,2.1,1.616a9.59,9.59,0,0,0,1.481-.113.223.223,0,0,0,.216-.188l.206-1.145Zm2.475-.131a.152.152,0,0,0-.159-.159h-1.36a.249.249,0,0,0-.234.188l-.225,1.306c0,.122.065.188.159.188h1.36a.25.25,0,0,0,.233-.188l.225-1.306ZM75.12,5.366c0-.094-.074-.122-.178-.16a4.174,4.174,0,0,0-1.294-.179c-1.773,0-2.983.733-3.413,3.1l-.178.968a4.5,4.5,0,0,0-.076.76,2.208,2.208,0,0,0,2.438,2.33,4.673,4.673,0,0,0,1.332-.169c.159-.047.216-.084.234-.206l.215-1.2c0-.141-.047-.179-.141-.179a13.455,13.455,0,0,1-1.349.085c-.413,0-.779-.141-.779-.846a3.488,3.488,0,0,1,.057-.573l.178-.968c.225-1.24.7-1.419,1.209-1.419a11.809,11.809,0,0,1,1.3.085.2.2,0,0,0,.225-.179l.216-1.2Zm6,1.973a2.178,2.178,0,0,0-2.41-2.311c-1.623,0-2.982.724-3.423,3.1L75.11,9.1a4.633,4.633,0,0,0-.074.76,2.2,2.2,0,0,0,2.41,2.33c1.744,0,3-.808,3.422-3.09l.178-.968a4.014,4.014,0,0,0,.076-.79m-1.942.206a3.618,3.618,0,0,1-.066.583l-.178.968c-.187,1.005-.534,1.41-1.19,1.41-.506,0-.77-.245-.77-.827a3.69,3.69,0,0,1,.066-.582l.179-.968c.187-1.006.534-1.419,1.191-1.419.506,0,.769.254.769.836m10.99-.469c0-1.672-1.182-2.048-3.554-2.048-2.625,0-4,.093-4.435,2.546l-.76,4.341a.157.157,0,0,0,.16.188h1.528a.23.23,0,0,0,.216-.188l.722-4.153c.169-.958.413-1.043,1.313-1.043l-.909,5.2a.15.15,0,0,0,.15.188h1.537a.24.24,0,0,0,.225-.188l.91-5.2c.731,0,.993.085.993.573a2.37,2.37,0,0,1-.056.47l-.722,4.153a.144.144,0,0,0,.141.188h1.528a.249.249,0,0,0,.234-.188l.694-3.965a5.158,5.158,0,0,0,.084-.873" transform="translate(-8.064 -1.533)" fill-rule="evenodd"/>
        <path id="Pfad_22" data-name="Pfad 22" d="M1.194,12.59A1.144,1.144,0,0,1,0,11.394v-.211L1.685,1.407A1.876,1.876,0,0,1,3.44,0h11.6L13.215,10.671l3.214,1.915ZM5.35,8.328a.4.4,0,0,1-.413-.413V7.842L5.52,4.469a.646.646,0,0,1,.606-.485h4.01L9.386,8.328Z" fill="#e4003a" fill-rule="evenodd"/>
      </g>
    </g>
  </g>
</svg>
