<svg xmlns="http://www.w3.org/2000/svg" width="185" height="35" viewBox="0 0 185 35">
  <g id="all-inkl_banner_185x35_black" transform="translate(-245 -598)">
    <rect id="Rechteck_1540" data-name="Rechteck 1540" width="185" height="35" transform="translate(245 598)"/>
    <text id="hosted_by" data-name="hosted by" transform="translate(319.997 612)" fill="#868786" font-size="15" font-family="ProximaNova-MediumIt, Proxima Nova" font-weight="500" font-style="italic" letter-spacing="-0.025em"><tspan x="0" y="0">hosted by</tspan></text>
    <g id="logo" transform="translate(251.196 602.267)">
      <g id="Gruppe_79" data-name="Gruppe 79" transform="translate(0 0)">
        <path id="Pfad_21" data-name="Pfad 21" d="M39.81,8.465c0-2.667-2.15-3.437-4.357-3.437H33.935c-3.371,0-5.165.712-5.835,4.5l-1.755,9.974c-.039.2.019.395.316.395h3.232a.424.424,0,0,0,.454-.395l.769-4.385h3.607l-.769,4.385a.3.3,0,0,0,.3.395h3.213a.439.439,0,0,0,.493-.395l1.756-9.974a7.021,7.021,0,0,0,.1-1.067m-4.06.672a3.52,3.52,0,0,1-.039.395l-.416,2.331H31.688L32.1,9.531c.139-.791.433-1.027,1.222-1.027h1.518c.65,0,.907.158.907.633m13.681,7.839a.321.321,0,0,0-.335-.335H45.9c-.573,0-.809-.158-.809-.612a3.04,3.04,0,0,1,.038-.374L46.885,5.62c0-.256-.117-.4-.314-.4H43.359a.528.528,0,0,0-.493.4L41.111,15.655a6.564,6.564,0,0,0-.1,1.024c0,2.667,2.189,3.4,4.416,3.4a20.145,20.145,0,0,0,3.114-.237A.466.466,0,0,0,49,19.446l.435-2.408Zm10.29,0a.322.322,0,0,0-.335-.335H56.191c-.572,0-.808-.158-.808-.612a2.794,2.794,0,0,1,.039-.374L57.177,5.62c0-.256-.117-.4-.315-.4H53.649a.528.528,0,0,0-.493.4L51.4,15.655a6.731,6.731,0,0,0-.1,1.024c0,2.667,2.188,3.4,4.415,3.4a20.151,20.151,0,0,0,3.115-.237.467.467,0,0,0,.454-.395l.433-2.408Zm6.091-4.087a.305.305,0,0,0-.335-.316h-3.8a.46.46,0,0,0-.452.374l-.356,2.015c0,.257.137.374.335.374H65a.464.464,0,0,0,.452-.374l.354-2.015Zm6.743-7.665H69.32a.465.465,0,0,0-.452.376L66.424,19.506a.314.314,0,0,0,.315.395h3.232a.444.444,0,0,0,.474-.395L72.889,5.6a.3.3,0,0,0-.335-.376M86.611,9.175c0-3.159-2.131-4.147-5.579-4.147-.849,0-3.293.178-4.338.336-.948.137-1.282.376-1.46,1.441l-2.227,12.7c0,.256.12.395.315.395h3.232a.505.505,0,0,0,.474-.395L78.94,8.563a15.038,15.038,0,0,1,1.895-.1c1.142,0,1.695.237,1.695,1.322a6.819,6.819,0,0,1-.1.988l-1.518,8.731c0,.256.1.395.3.395h3.252a.505.505,0,0,0,.474-.395l1.518-8.731a10.024,10.024,0,0,0,.158-1.6M102.262,5.4c0-.118-.077-.18-.236-.18H98.142a.632.632,0,0,0-.492.319l-4.772,6.22L93.964,5.6c0-.256-.139-.376-.337-.376H90.414a.49.49,0,0,0-.474.376L87.5,19.506c0,.256.139.395.337.395h3.213a.5.5,0,0,0,.473-.395l1.1-6.4,2.506,6.459c.058.177.118.335.354.335h3.864a.28.28,0,0,0,.315-.276.366.366,0,0,0-.038-.137l-3.038-6.954,5.56-6.872a.48.48,0,0,0,.118-.257m8.28,11.573a.322.322,0,0,0-.335-.335h-3.193c-.572,0-.809-.158-.809-.612a2.585,2.585,0,0,1,.041-.374L108,5.62c0-.256-.117-.4-.315-.4h-3.212a.529.529,0,0,0-.494.4l-1.755,10.036a6.746,6.746,0,0,0-.1,1.024c0,2.667,2.189,3.4,4.418,3.4a20.161,20.161,0,0,0,3.114-.237.469.469,0,0,0,.454-.395l.433-2.408Zm5.2-.276a.32.32,0,0,0-.334-.335h-2.859a.524.524,0,0,0-.492.395l-.474,2.746c0,.256.137.395.334.395h2.86a.525.525,0,0,0,.49-.395l.474-2.746ZM128.894,5.74c0-.2-.156-.257-.373-.336a8.776,8.776,0,0,0-2.72-.376c-3.726,0-6.27,1.54-7.176,6.518l-.373,2.034a9.453,9.453,0,0,0-.159,1.6c0,3.26,2.189,4.9,5.125,4.9a9.824,9.824,0,0,0,2.8-.355c.334-.1.454-.177.493-.434l.452-2.528c0-.3-.1-.376-.3-.376a28.286,28.286,0,0,1-2.837.178c-.868,0-1.638-.3-1.638-1.778a7.333,7.333,0,0,1,.12-1.2l.375-2.034c.473-2.607,1.477-2.984,2.542-2.984a24.825,24.825,0,0,1,2.739.178.416.416,0,0,0,.473-.376l.454-2.528Zm12.619,4.147c0-3.416-2.328-4.858-5.067-4.858-3.411,0-6.269,1.521-7.2,6.518l-.376,2.034a9.741,9.741,0,0,0-.156,1.6c0,3.337,2.287,4.9,5.067,4.9,3.667,0,6.308-1.7,7.195-6.5l.375-2.034a8.439,8.439,0,0,0,.159-1.66m-4.082.434a7.607,7.607,0,0,1-.139,1.226l-.375,2.034c-.394,2.113-1.123,2.963-2.5,2.963-1.065,0-1.619-.514-1.619-1.739a7.757,7.757,0,0,1,.139-1.224l.376-2.034c.394-2.114,1.123-2.984,2.5-2.984,1.065,0,1.616.533,1.616,1.758m23.1-.986c0-3.516-2.484-4.306-7.472-4.306-5.519,0-8.417.2-9.324,5.352l-1.6,9.125a.33.33,0,0,0,.335.395h3.213a.483.483,0,0,0,.454-.395l1.518-8.731c.356-2.015.869-2.193,2.759-2.193l-1.911,10.924a.316.316,0,0,0,.315.395h3.232a.505.505,0,0,0,.474-.395l1.912-10.924c1.536,0,2.089.178,2.089,1.205a4.982,4.982,0,0,1-.118.988L154.9,19.506a.3.3,0,0,0,.3.395h3.213a.524.524,0,0,0,.492-.395l1.46-8.336a10.843,10.843,0,0,0,.176-1.835" transform="translate(12.074 6.389)" fill="#fff" fill-rule="evenodd"/>
        <path id="Pfad_6224" data-name="Pfad 6224" d="M2.51,26.467A2.4,2.4,0,0,1,0,23.953v-.444L3.543,2.959A3.944,3.944,0,0,1,7.231,0H31.625L27.782,22.434l6.756,4.026Z" fill="#fff" fill-rule="evenodd"/>
        <path id="Pfad_22" data-name="Pfad 22" d="M2.51,26.467A2.4,2.4,0,0,1,0,23.953v-.444L3.543,2.959A3.944,3.944,0,0,1,7.231,0H31.625L27.782,22.434l6.756,4.026Zm8.738-8.959a.83.83,0,0,1-.868-.868v-.153L11.6,9.394a1.359,1.359,0,0,1,1.273-1.02h8.43l-1.575,9.134Z" fill="#e4003a" stroke="#fff" stroke-width="1" fill-rule="evenodd"/>
      </g>
    </g>
  </g>
</svg>
